<?xml version="1.0" encoding="UTF-8"?>
<svg width="24" height="24" viewBox="0 0 24 24" fill="none" xmlns="http://www.w3.org/2000/svg">
  <path d="M12 2C6.48 2 2 6.48 2 12C2 17.52 6.48 22 12 22C17.52 22 22 17.52 22 12C22 6.48 17.52 2 12 2ZM16.9 15.49L13 17.64V14H11V17.64L7.1 15.49L6.1 17.2L10 19.35V23H14V19.35L17.9 17.2L16.9 15.49ZM15 9C15 10.1 14.1 11 13 11C11.9 11 11 10.1 11 9C11 7.9 11.9 7 13 7C14.1 7 15 7.9 15 9ZM9 9C9 10.1 8.1 11 7 11C5.9 11 5 10.1 5 9C5 7.9 5.9 7 7 7C8.1 7 9 7.9 9 9Z" fill="#3B82F6"/>
</svg>